<svg width="72" height="19" viewBox="0 0 72 19" fill="none" xmlns="http://www.w3.org/2000/svg">
<path d="M4.40703 2.10938L9.65703 13.0898L14.532 2.10938H17.0281L9.87969 18.2344H8.06328L0.375782 2.10938H4.40703ZM21.4906 7.08984L24.0453 5.75391H25.1352V18H21.4906V7.08984ZM21.3383 1.81641C21.3383 1.57422 21.3891 1.34375 21.4906 1.125C21.5922 0.90625 21.7328 0.71875 21.9125 0.5625C22.0922 0.40625 22.2992 0.28125 22.5336 0.1875C22.768 0.09375 23.0219 0.046875 23.2953 0.046875C23.5688 0.046875 23.8227 0.09375 24.057 0.1875C24.2992 0.28125 24.5063 0.40625 24.6781 0.5625C24.8578 0.71875 24.9984 0.90625 25.1 1.125C25.2016 1.34375 25.2523 1.57422 25.2523 1.81641C25.2523 2.05859 25.2016 2.28906 25.1 2.50781C24.9984 2.71875 24.8578 2.90234 24.6781 3.05859C24.5063 3.21484 24.2992 3.33984 24.057 3.43359C23.8227 3.52734 23.5688 3.57422 23.2953 3.57422C23.0219 3.57422 22.768 3.52734 22.5336 3.43359C22.2992 3.33984 22.0922 3.21484 21.9125 3.05859C21.7328 2.90234 21.5922 2.71875 21.4906 2.50781C21.3891 2.28906 21.3383 2.05859 21.3383 1.81641ZM33.3711 6L36.8867 13.3125L40.4492 6H42.9336L37.0273 18.2695H35.375L29.5625 6H33.3711ZM55.1891 8.51953C55.025 8.37891 54.8727 8.25781 54.732 8.15625C54.5992 8.05469 54.4664 7.97266 54.3336 7.91016C54.2008 7.84766 54.0602 7.80469 53.9117 7.78125C53.7711 7.75 53.6109 7.73438 53.4313 7.73438C53.1813 7.73438 52.9352 7.77734 52.693 7.86328C52.4508 7.94141 52.2242 8.05469 52.0133 8.20312C51.8023 8.34375 51.6109 8.51172 51.4391 8.70703C51.275 8.89453 51.1461 9.09766 51.0523 9.31641V18H47.4195V7.08984L49.9625 5.75391L51.0523 6.92578C51.4508 6.51172 51.8922 6.17969 52.3766 5.92969C52.8688 5.67969 53.3844 5.55469 53.9234 5.55469C54.4469 5.55469 54.9195 5.66406 55.3414 5.88281C55.7633 6.09375 56.1305 6.32812 56.443 6.58594L55.1891 8.51953ZM65.7805 18.2695C64.9289 18.2695 64.1281 18.1133 63.3781 17.8008C62.6281 17.4805 61.9758 17.0547 61.4211 16.5234C60.8664 15.9844 60.425 15.3633 60.0969 14.6602C59.7766 13.9492 59.6164 13.1992 59.6164 12.4102C59.6164 11.4648 59.7648 10.5898 60.0617 9.78516C60.3586 8.97266 60.7805 8.26953 61.3273 7.67578C61.8742 7.08203 62.5266 6.62109 63.2844 6.29297C64.05 5.95703 64.9016 5.78906 65.8391 5.78906C66.675 5.78906 67.4406 5.92188 68.1359 6.1875C68.8312 6.45312 69.425 6.81641 69.9172 7.27734C70.4172 7.73828 70.8039 8.28125 71.0773 8.90625C71.3508 9.53125 71.4875 10.1992 71.4875 10.9102H63.1789C63.2102 11.5742 63.3078 12.207 63.4719 12.8086C63.6437 13.4102 63.8703 13.9414 64.1516 14.4023C64.4328 14.8555 64.7609 15.2188 65.1359 15.4922C65.5187 15.7578 65.9406 15.8906 66.4016 15.8906C66.8 15.8906 67.1906 15.8242 67.5734 15.6914C67.9641 15.5508 68.3234 15.3633 68.6516 15.1289C68.9797 14.8867 69.2648 14.6094 69.507 14.2969C69.7492 13.9766 69.925 13.6328 70.0344 13.2656L71.8859 13.5586C71.6984 14.207 71.3977 14.8164 70.9836 15.3867C70.5773 15.957 70.0969 16.457 69.5422 16.8867C68.9953 17.3164 68.3977 17.6562 67.7492 17.9062C67.1008 18.1484 66.4445 18.2695 65.7805 18.2695ZM67.3156 9.66797C67.2844 9.31641 67.2062 8.99609 67.0812 8.70703C66.9641 8.41016 66.8117 8.15625 66.6242 7.94531C66.4367 7.73438 66.218 7.57422 65.968 7.46484C65.718 7.34766 65.4484 7.28906 65.1594 7.28906C64.9328 7.28906 64.7102 7.34766 64.4914 7.46484C64.2727 7.57422 64.0734 7.73438 63.8937 7.94531C63.7219 8.14844 63.5734 8.39844 63.4484 8.69531C63.3312 8.98438 63.2531 9.30859 63.2141 9.66797H67.3156Z" fill="#343A40"/>
</svg>
